<?xml version="1.0" standalone="no"?>
<!DOCTYPE svg PUBLIC "-//W3C//DTD SVG 20010904//EN"
 "http://www.w3.org/TR/2001/REC-SVG-20010904/DTD/svg10.dtd">
<svg version="1.0" xmlns="http://www.w3.org/2000/svg"
 width="512.000000pt" height="512.000000pt" viewBox="0 0 512.000000 512.000000"
 preserveAspectRatio="xMidYMid meet">
<metadata>
Created by potrace 1.16, written by Peter Selinger 2001-2019
</metadata>
<g transform="translate(0.000000,512.000000) scale(0.100000,-0.100000)"
fill="#000000" stroke="none">
<path d="M2300 5109 c-132 -15 -291 -50 -425 -94 -457 -149 -813 -440 -1115
-910 -42 -64 -45 -74 -45 -135 0 -49 5 -71 20 -91 23 -30 634 -500 704 -541
53 -32 115 -37 164 -13 18 9 77 71 132 137 55 67 154 177 220 244 106 106 130
126 205 162 285 137 653 87 860 -118 92 -90 117 -166 99 -295 -27 -195 -124
-298 -425 -448 -388 -194 -686 -496 -790 -799 -35 -104 -46 -199 -42 -368 3
-147 4 -158 32 -213 50 -103 14 -97 596 -97 473 0 508 1 540 19 56 29 88 84
104 179 25 141 105 284 228 404 47 46 112 92 215 153 219 129 239 143 346 228
264 210 381 394 462 727 25 102 31 373 11 490 -31 178 -88 332 -178 480 -193
317 -440 536 -803 711 -214 103 -371 153 -580 185 -99 15 -412 17 -535 3z"/>
<path d="M1940 1258 c-18 -13 -43 -36 -54 -51 -21 -28 -21 -36 -21 -567 0
-531 0 -539 21 -567 11 -15 36 -38 54 -51 l33 -22 532 0 532 0 33 23 c18 12
43 35 54 50 21 28 21 36 21 567 0 531 0 539 -21 567 -11 15 -36 38 -54 51
l-33 22 -532 0 -532 0 -33 -22z"/>
</g>
</svg>
